<svg xmlns="http://www.w3.org/2000/svg" viewBox="0 0 1000 200">
  <path fill="#0052CC" d="M49.1 89.6c-2.5-2.6-6-4-9.7-4-7.8 0-14.1 6.3-14.1 14.1 0 7.8 6.3 14.1 14.1 14.1 3.7 0 7.2-1.4 9.7-4l48.9 28.2c2.5 1.5 5.4 2.3 8.4 2.3 9.2 0 16.7-7.5 16.7-16.7s-7.5-16.7-16.7-16.7c-3 0-5.9 0.8-8.4 2.3L49.1 89.6zm0 0"/>
  <path fill="#0052CC" d="M106.3 99.8c0-3.7-1.4-7.2-4-9.7L131 41.2c1.5-2.5 2.3-5.4 2.3-8.4 0-9.2-7.5-16.7-16.7-16.7s-16.7 7.5-16.7 16.7c0 3 0.8 5.9 2.3 8.4l28.7 48.9c-2.6 2.5-4 6-4 9.7 0 7.8 6.3 14.1 14.1 14.1 7.8 0 14.1-6.3 14.1-14.1zm0 0"/>
  <path fill="#0052CC" d="M106.3 99.8c0 7.8 6.3 14.1 14.1 14.1 7.8 0 14.1-6.3 14.1-14.1 0-3.7-1.4-7.2-4-9.7l28.7-48.9c1.5-2.5 2.3-5.4 2.3-8.4 0-9.2-7.5-16.7-16.7-16.7s-16.7 7.5-16.7 16.7c0 3 0.8 5.9 2.3 8.4l28.7 48.9c-2.6 2.5-4 6-4 9.7zm0 0"/>
  <path fill="#0052CC" d="M163.5 89.6c-2.5-2.6-6-4-9.7-4-7.8 0-14.1 6.3-14.1 14.1 0 7.8 6.3 14.1 14.1 14.1 3.7 0 7.2-1.4 9.7-4l48.9 28.2c2.5 1.5 5.4 2.3 8.4 2.3 9.2 0 16.7-7.5 16.7-16.7s-7.5-16.7-16.7-16.7c-3 0-5.9 0.8-8.4 2.3L163.5 89.6zm0 0"/>
</svg> 