<svg xmlns="http://www.w3.org/2000/svg" viewBox="0 0 32 32">
  <path fill="#0052CC" d="M15.9 1.3C7.9 1.3 1.4 7.8 1.4 15.8s6.5 14.5 14.5 14.5 14.5-6.5 14.5-14.5S23.9 1.3 15.9 1.3zm0 26.3c-6.5 0-11.8-5.3-11.8-11.8S9.4 4 15.9 4s11.8 5.3 11.8 11.8-5.3 11.8-11.8 11.8z"/>
  <path fill="#0052CC" d="M21.2 12.5l-3.6 3.6-3.6-3.6c-.4-.4-1-.4-1.4 0-.4.4-.4 1 0 1.4l3.6 3.6-3.6 3.6c-.4.4-.4 1 0 1.4.2.2.5.3.7.3.3 0 .5-.1.7-.3l3.6-3.6 3.6 3.6c.2.2.5.3.7.3.3 0 .5-.1.7-.3.4-.4.4-1 0-1.4l-3.6-3.6 3.6-3.6c.4-.4.4-1 0-1.4-.4-.4-1-.4-1.4 0z"/>
</svg> 